<mxfile host="app.diagrams.net" agent="Mozilla/5.0 (Windows NT 10.0; Win64; x64) AppleWebKit/537.36 (KHTML, like Gecko) Chrome/130.0.0.0 Safari/537.36" version="24.8.3">
  <diagram name="Page-1" id="xSJlC70RfZlZ6eFnTXh1">
    <mxGraphModel dx="1434" dy="738" grid="1" gridSize="10" guides="1" tooltips="1" connect="1" arrows="1" fold="1" page="1" pageScale="1" pageWidth="850" pageHeight="1100" math="0" shadow="0">
      <root>
        <mxCell id="0" />
        <mxCell id="1" parent="0" />
        <mxCell id="46iBx0alZiGWIKfsoi77-3" value="Usuarios&amp;nbsp;&amp;nbsp;" style="rounded=1;whiteSpace=wrap;html=1;align=right;spacingRight=12;strokeColor=#B3B3B3;fontSize=16;fontFamily=Tahoma;" parent="1" vertex="1">
          <mxGeometry x="140" y="430" width="150" height="60" as="geometry" />
        </mxCell>
        <mxCell id="46iBx0alZiGWIKfsoi77-2" value="" style="shape=image;verticalLabelPosition=bottom;labelBackgroundColor=default;verticalAlign=top;aspect=fixed;imageAspect=0;image=https://png.pngtree.com/png-vector/20191009/ourlarge/pngtree-group-icon-png-image_1796653.jpg;" parent="1" vertex="1">
          <mxGeometry x="145" y="435" width="50" height="50" as="geometry" />
        </mxCell>
        <mxCell id="46iBx0alZiGWIKfsoi77-6" value="Chatbot&amp;nbsp;&amp;nbsp;" style="rounded=1;whiteSpace=wrap;html=1;align=right;spacingRight=12;strokeColor=#B3B3B3;fontSize=16;fontFamily=Tahoma;" parent="1" vertex="1">
          <mxGeometry x="380" y="430" width="150" height="60" as="geometry" />
        </mxCell>
        <mxCell id="46iBx0alZiGWIKfsoi77-7" value="&lt;ul&gt;&lt;li style=&quot;text-align: left;&quot;&gt;Tutoriales&lt;/li&gt;&lt;li style=&quot;text-align: left;&quot;&gt;ArtÃ­culos&lt;/li&gt;&lt;li style=&quot;text-align: left;&quot;&gt;Manuales&amp;nbsp;&amp;nbsp;&lt;/li&gt;&lt;li style=&quot;text-align: left;&quot;&gt;etc.&lt;/li&gt;&lt;/ul&gt;" style="rounded=1;whiteSpace=wrap;html=1;align=right;spacingRight=2;strokeColor=#B3B3B3;fontSize=16;fontFamily=Tahoma;" parent="1" vertex="1">
          <mxGeometry x="610" y="320" width="150" height="100" as="geometry" />
        </mxCell>
        <mxCell id="46iBx0alZiGWIKfsoi77-4" value="" style="shape=image;verticalLabelPosition=bottom;labelBackgroundColor=default;verticalAlign=top;aspect=fixed;imageAspect=0;image=https://cdn-icons-png.flaticon.com/256/561/561111.png;" parent="1" vertex="1">
          <mxGeometry x="617.5" y="353.5" width="35" height="35" as="geometry" />
        </mxCell>
        <mxCell id="46iBx0alZiGWIKfsoi77-8" value="Modelo IA" style="rounded=1;whiteSpace=wrap;html=1;align=right;spacingRight=12;strokeColor=#B3B3B3;fontSize=16;fontFamily=Tahoma;" parent="1" vertex="1">
          <mxGeometry x="610" y="520" width="150" height="60" as="geometry" />
        </mxCell>
        <mxCell id="46iBx0alZiGWIKfsoi77-14" value="" style="shape=image;verticalLabelPosition=bottom;labelBackgroundColor=default;verticalAlign=top;aspect=fixed;imageAspect=0;image=https://static.thenounproject.com/png/2985130-200.png;" parent="1" vertex="1">
          <mxGeometry x="612" y="520" width="60" height="60" as="geometry" />
        </mxCell>
        <mxCell id="o-5jzq-C7rD5Epzr2jJ_-4" value="" style="shape=image;verticalLabelPosition=bottom;labelBackgroundColor=default;verticalAlign=top;aspect=fixed;imageAspect=0;image=data:image/png,iVBORw0KGgoAAAANSUhEUgAAAJMAAACQCAYAAAAMcVm7AAAAAXNSR0IArs4c6QAAAARnQU1BAACxjwv8YQUAAAAJcEhZcwAADsMAAA7DAcdvqGQAAABhaVRYdFNuaXBNZXRhZGF0YQAAAAAAeyJjbGlwUG9pbnRzIjpbeyJ4IjowLCJ5IjowfSx7IngiOjE0NywieSI6MH0seyJ4IjoxNDcsInkiOjE0NH0seyJ4IjowLCJ5IjoxNDR9XX0shCvUAAAYzUlEQVR4Xu2dCdRV0/vHt2RMKU0oP5pEJak0TysaRMqwpKLVwFIoZMxK629KoyHLKouysJZKq4jEIg0aSEgIDYqEkLEokfPfn8f7XKfrvu973/vuc8+573u+az3r3HuGffZ+9nfv/exnD+cgz8LEiOEAZfKOMWIUGzGZYjhDTKYYzhB5m4noHXTQQXJEypTJPv/zU5HGDYmRI2TyH8POOCWQIibSv4g8mf744w/zww8/mN27d5u///4772x2oSoqW7asqVChgqlUqZI55JBD5FxMpn8ROTJBGDJo//79Zs2aNWb58uVm06ZN5qeffpJrYURXCQOZqlWrZho2bGg6dOhg6tataw499FC5pijN5Iocmf766y/z559/mhkzZpiZM2eadevWmd9++y3v6r+1RDbhJwg2W+XKlU2bNm3MkCFDTMeOHU25cuXyrv5zvdQCMkUJ+/bt88aPH+/VqFHDs5no2cxJCNENQ5LjgdgayWvevLm3cOFCb+/evZ6tST1bc+alonQicjXT4sWLzcCBA8327dulRjjssMPMaaedZpo1a2bKly+fd1f2gZpoaletWmU2btwo/y2pTOfOnc3DDz9s6tSpI/H112KlDZEgk0YBO6lv377m+eefF/voyCOPlKZk2LBhpmLFiv+xT7INmuAtW7YIeebMmSP/idO0adPMJZdcIsSHYKUWkClM0DSofPbZZ16tWrWkWTn44IO9Tp06ebYn59lMi0wzQlyWLFnitW7dWpo74tq/f3/v+++/lziWZkSqGG3evFmMbRsvY8lkLrjgAumKR6n5oOZp3LixOeOMMxLx2rBhg3QaSjsiQSbIA/bs2SO/NZPohkMqoPdEAfTeECW4xru0I3SbSckD5s+fb6644gqzc+dOsT+efPJJ06dPH7nmGtg71DLYZrwfew3H6M8//yyOUs7npxrb4zSPPPKIxI/78Dc9+uijpmrVqnl3FB/EDceoOknxcfEuzmthixpKLZl4L5mDQCL8WS+//LJZtmyZ+eKLL4RQ+amG+FIbcQ+g9jzqqKPktytAnmOPPda0bNnSnH/++aZVq1bi34JMxItj5GAjFipsZub98jzbi/OqVKlCDnqWTN6sWbPyrrgH78WY3rFjh2d7Z16jRo08m4EJo5o4IPxOFu7R+1L9dyWESUfEksi79dZbvW3btomRT7yjiFLcjzVSI1EbTpw40axfv16aOqsTuWYzM1Fjci4/AVrDcX+qezIRf7j4tyZMmGAmT55sfvnll0S8ooZSSyYyiV7Y1KlTxUGaKkNVkuE/779OmK7gD1/DfeKJJ8yCBQsOeGeUUGrJhM3zxhtvmI8++iiymZMMalIIpbZa1FCqybRixQqntUmQUMIzgwIvfBRRasmEk5FeG2TKlZqJeOKWoFmOIkotmcgYfE25BOIM+SFUFFFqyRTDPWIyxXCGmEwxnCEmUwxniMkUwxliMsVwhphMMZwhJlMMZ4jJFMMZIkEm/5CGTq/Q6RwxcgeRIJOfOBz5r6Tif0yq3EBkmrkyZcrIGjSmwCq5mL7rJ1WMaCMyZIIstWvXlkn0/GZUn4lgHGNC5QYCIROZrnYQU2F1Omyq6R5KFI6QqUGDBjKZnvtWr15txo0bZ3788UdZT8ekMMjFaD+SHJaGz5Hre/fuNb///rvMXUoWHXnnvRqHkgJ0kEqCRiCrUzRIjv5axU8cP/zXqI1YEs6eTJxniXiLFi1Mu3btzIknnmiaN29uTj75ZKnBaBr9YUFaiMQ86ffff1/mdUPA5PeBX3/9VWYtfv311/Jf4xx1VKlSxUyfPl1WrOQH0pKcHnSgek6lDyewL3AOm6GyisLWJrJs+ttvv/V27dol55BU4BnE1hrebbfdJisydHWGCqtHunbt6lmiyAoN7vfDEsfbsGGDN2rUKFnlwvOIVR6aPUA4h+R3PapCuubPn5+X4tRAN7awiN7R/+7du+Ucuk/WmUs4q5k0GI42AVIrfPLJJ+bLL7+UJqd69ermlFNOkR1N/ve//yVKhx4VNrEy1/n+++83zz33nExTpXbR8FmfRsm88MILEzUT16iV3n33XdlEgk0laN4Kg76bd+YKUtVM/ixk9uiHH34ourdkkhq8Zs2aYj4grJL26zxZ/8WBEzIRBBnCkUTMmjVLlhCxdwC2iUb4uOOOM+ecc47p16+fNFvac/MniDAQnnv99ddli5333ntP7CdsIJSDMi+99NLEs7x70aJF5qGHHpKjJun4448XRfIePaeAfCwmgHT6zlwAZHr88cdNr1698s78UxhID9v9PP300+aVV15JNN/oh14y9mjv3r1Fb6eeemqiIPp1X2xYJToBVaitjbxBgwZ5FStWTDQfiP6mqTr88MO9zp07e5YoKZsq/iOEx3WaytmzZ3uWGBIGm2xZhXnWEBfhulWu16xZs8S7LOHk/5QpU7xly5Z5K1eu9KyiD5AXX3zRq1OnTolo5tAV+jzrrLNk8SppwiTgfr/+yZfBgwd7H3/8sTyDuIQzMu3cudO79957vUqVKknkNQEcIZH+RsqVK+fZ2snbsmVLSjKRSD+p2MLGGt8Shp9M3333nXfnnXd6ttlMhH/EEUeIUq0h71lDXJ5PRdrt27d7tslNxDM506IqVatWlYLgx9atW72+fftK2kmL6kKPfjnmmGO8sWPHylZFrsnkxDVgwzE2QeaFF16QjR9sxonoNf2t52la3nrrLVlqlAyrgP8IIBz9DVjuM2bMGNl4S6t0q0xz7rnnGktq06VLF9n0wSrwP70+QNPH9VwCaSAt2I3oQ8EmsuhT19Opzjn6hXOsDsYEQX/JOikunJDJMtx8/vnnYvgBPwH8ouD6V199Jd13VYAf/kT6f2sY77zzjrn55pvNM888Iz4oztvmU1wK48ePN02bNhXbSpFKadgR7JqbK9A0sJVP/fr1EzrFjkSP33zzzQE6Vuh9eo0j+UR+kW8u4YRMOBLpOZCwVBnnh17HwGa4hJ5buuBZeob4h1599VV5FuXg5LznnnukpsIXRektDJTubt26HUC6qIN0WXtTtu5RPaID9Ig+lTAFgefIJ2sipCzIxYEzDzgJ9ZeA/OC/TsJoboqKXbt2JdwF1gaQPTCHDx8uv0GqZi0ZEJDd39idrrB7owK69TfeeKPEl7TTbPFb45+OLtPJo0zhhEw0Gewl5N9NLT/odZ6hhBW2rxEKI+PxhKsSAYShmXrttddM165dE24GPaYDarGRI0fK3keaETybLJmCZzU+6RA8Gfocgj2ISwDvv4bDkR2I0SP7WfG/sHdwnXyqUaOGmAYu4YRMKOykk05K7PNYEPO5xj1kJNsxp9PMcC+EgXiQEMP5vPPOE38WTtDC3pkK+szpp59upkyZIrvl4peCtKRHM5HfkDkT8YdTVPAMBGGDL2zAl156yXTv3l2uUcC4ThrQH3o84YQTxAZKRw+Eh05dw5kHnKYHW+auu+6ScbWCQMlgRzjbRf2PRzYZKIjr9BYhD551CHTZZZdJ6SL6mlkFhZMMMkSPPEf8V65cKU5SejrYFYTNtUxVxLOET2eD+KfjlVdA6h49eoinG0cvW1cTXipiMuIwatQoM3v2bIl3QYY15LzjjjvMoEGDpHBmQvR8AZmKC6sw8fts3rzZGzFihDjWbMIT/hv/0SrJswryVq9enfAnFQSuc58K//OTogDfE+HpMTkszvvvyUTQiSWQt2jRIq9nz56erVETuihM8J3hX/PHjTDz0wH67NWrl/jweF71r++zpBEf1XXXXSf+PcJBXOLg/7OwLys2bKTFAKbbSs1D7wKfEz092E+VT43CMIBNkFTNPKPP5geupStFAXHiGT0mC+f992Qi+ixNCkMY1BqMnXEsDDTljD9iPvjjpL+TBZsV3QM6J+oy4RphMdvi8ssvlz1Da9WqlXjOKf7hVPGhJQS2M0OAIYt27dqJx9oSSTyvfGfEJjJxH8eSDNKnNRSyadMmzzYx8l0YdIL68xNrA3lLly5NS0fcQ/i8C8+2ta8Ssy6s7ea1b99ehpTIlyB17rDB/BfUTPSQGGSlNNn3iA2AX+foo4+We5yXighCS78KNQIujNGjR8vAq0torYV+0TP61vN0LFq3bi3nyIug4IxMfqUpiLgtCSL89t+TfG9JBWkkQ1UY9ae5mTRpkjQ9SgI9+vWCzlQKgv85fQ86B/5n9XpQcB6yKkKPyYkpbSDNKgr8O/TQ2Iie3lqqDC5qpqd6T2EkdI3gaBojX0AU/FD45dg2+uqrrxZ/kRKBIwZ1mJ9EywQxmUKA1hgcsaPw+zDTQX1JfN6CT6Xh7c4lxGTKIrQZombSIy4ThkNGjBghU3KYcrxkyRKpraiZ9N5cQEymiIBmDz8RA8+NGjXKqdkMiphMEYHWVLmMnIh9tnslYcFvS/nTnCvpjzyZ1EflV7D/f0kSP/jv99HlAnKqXkWp+/fvTywPL4mizsZcRGDLw7EBWKM1b948Gexluoh+PakovRMGRZmv/Omnn8pUDibE6/SQkgb0whwmXAMMRbFolYFe5nAVxZ5CN8xvYqEFhj0DxjNnzpRrQfYMQycT//3n9DeldNWqVbKgcO3atWbbtm0yb4cNLAivJIJ04ypgnhHuAmYbMHkPb3mbNm2EGHpfQUCHYZCJFzuHrarl2KdPH1kQyWsYKQd6TcF/ZhBY8siR0W9bA3kjR470rCJlDpAtlQfMzSktwsyC8uXLe02aNPFuuukm0Us6sy24jr7RF/onHzhX2HPFReRsprffflsGQh977DHzwQcfJFagIKUJ1CCkmZoYPTD/e8CAAbKfQlR1ESky4QG+5ppr5KOCkAiF2tIk13LdB1NUaHqVOEwrZrElk9tYcBlFhJ5Dqiw+cXrLLbdIKcRe4rwSSX9HtUQGAXqtmmaO/MdWZLMN2+SJvrgWJZ2ETiZqH0rdfffdJytTlUAxDoQ2ewi7wtx9990yLRpEhVChkwnysKqCKryk9tJcQQnF/HpMgrlz50otHhWETibcBXT/o/qp0KggufZBXwsXLhTfW1QQCpm0ukbYxAs7oLTZRJlA9cMRfbGGkN5vVBBqzcSSHAzuuFbKDGzxyI4mrjegyBShkondO3QdWVwrFR061IQeo4BQycQycoZIFDGhig70V9hy/GwhVDLh3VUPd4zMgP6KsodBkAiFTHRxgTrjYhQdFEAE/UVFh6GQCSUooWJkjqjpMGtkYqxJS5M632IUD/5CqfqktkfQN9eY0pItZIVMJIjExk1asFAioWsEQvE/W8hazUTi6HXQlY3hFv7aCVcL2+koqbKJrJCJhPGlpZ49e5oJEybknXWDdOyGdO4JCy7ipqQhrMmTJ8sWjfSU/eezgcDIpAnRJo4u7Lp165wmjGpcbQMNV3+r+O/JFvJ7f7KgG44u4qdhUnDRM4VXmzh/2EHWVoGRiSbNXzqCgobPnlBs9uAX5lG73lG2MGimIpCEXXKJBx8hYp8khN/slcR1jb8/w10CQvFtPd1JLkgEsqCAiPN1oQceeEDG3dTwZpXF4MGDzdSpUyVhbEjKlwYynTlIZhBmhw4dTMuWLSWTABmDEpnSwvgV0zUorels/1dcKCkgMYsB2rZtK59E8+9yQtr5osCbb74povHKpIPCJl6YDnwli3CHDRsmG9UyTQXwThYXMKGuf//+ib3SAwFkcgGrCBFbG3k2MV79+vUTH3/hNQhbEg4dOlTut5ntLV++3GvVqlXielGlbNmy8pWitWvXyoIEPwif+Njm1Vu8eLHXpUsXeb9VbsqwXAnh8x4+ssh70QdxQfwgvnyEcciQITLpP9N4WTKJHgHvuOqqq+T9/nvIg3r16nnTp08/ID7JcSounDRzNpyEUMuwGIDtj21k5VxQaNy4sWwKTw1ALeUHJZJzNH8dO3aUnf3ZtlivBQXC5j033HCDvJfmjHPJ78Re0vizUUXQID9YlEBNSL4EASdkUmXRpD377LOyzo0mJlmBrsEm6+xvBAp6F6SiGdCP9gUNFk/S9BYGChqLLFkXFyTQDe8iX+bMmSMT6oIo5M40S3vPRDd20scG0MwNklBkBFBlFQRsGGyqoD3CkBUjWz8/URC4zv2ajqCgNRHznpidSeuRiX1WGJyRaceOHfJJUwxLQOYiQVWpAGKo66GwjNN7g256CZtVtJAkXTJpGoKC5gNHaiU+V0t+uYYzMuF5Xbp0aaDkSYXCMkyBIrk3yEzzI5vvKgqIE5/0IL/S1V26cEImqk/WcenXFbOZYelC73WtwFQg/Ug23lVUEC+GtMgv164SJ2TCKcZcZK2VsqVEJoXpOwsjMPft2bMn71+woHBps1IQlHTZnMNN3hA38ov1ii7hhEx4uj/77DP5rQrKBtasWSOly/9O/9EvTG+lNAYN3sXn+HkfRq6SKpVwnQJBxyVbBZD3EqfNmzfLEJdLOGvm+ExntrFgwQKzbNky8faSGf6MAvqbcaqnnnpK7AQUGXTG4XVnBIBCBjQ+Cv3PAkr2VaCHlS2QdgSyq5fcFZyQiRKWrSbEDzb+Yg9tvkNHtc1+RPRS6FHSayFT2TUEJ+q0adOkWicjgyQTYdPsM2Q0ffp0eT/xIE4IceTIWkFWMhN/xjGTCRcUeA9Cje7aPeBkbI5qnU3QWQMH8guScTSXY3OAzGOnNT78w+Cu3ylJyWOTMB1F98fLQbJTQks+4KM4eOd1bA5wjXdDKLzRxd0voLCxuVQgDnjf2QAMR64z2AgUGxs3bvTatm0r40sIwaYS12NzsaQ3NucXzaM2bdp41oaU51zBSTOHt7d69eqJEhkj+qAWj+QHn9mDke98WHLK/5hU0Qf5xSC4SzghE9/44JOp6YxHxQgf1Ejkl+uvRjkhE8Zl3bp1TYMGDfLOxIgqKOzMaqhTp05i915XcEImwMh3586dM+6VxMgO8LN17dpVyOS6FXFCJgjEdNCzzz5bWB8jusBWYtJeENN3nZAJhjONgs/L85lQZhfyH5+P3+8TIxxoXtBRuuiii8yZZ54ZiG3rNKdh+8UXX2w6deqU9m76MYIHTRt2LTUSZNJaybVJ4rzawOPLXtX0FiAUCYkRLsgH8uPKK680TZo0kXPkSyRtJkDEtLljbvb1118vE+VJiF5DYgM9GPj1ip71yBAWRGKBQ7du3RL5EIT54TREjST+Jj7+MmbMGGny/ONSSIzg4Ncxekf/o0ePls+1qh/QLy7hnp4WlBIi3qNHD/kq9vDhw021atXkvOsExPgH6Fb1izC8de2118rm8+QD+aH3BIVAyKSEoclr2rSprCadMWOGGTJkiJAqRjBA7+h34MCBom8+H9K8efNEywCCLMyBLA/3Q4PnqLMPWQrEfxdTUDIFzTFGKEfsCv3se7pgYhvzozhqGsmobHc4mIIyceJEWYYOmC9FOiCVPz3+OAaFwMmUH8ImE7Umwnye22+/3bRo0aJIZKJQMG147NixMjGP9ESBTKECMoUBq/RQ5zPZjPeqVq3qjRs3Tj6YaMmRWH9fkHAf+wRw3Ldvn2dtQq9KlSoH7KmQTWE+04oVK/K0Gi4CsZlyAdQi2BKWCFJDpVv9c5/ei9uDVcI0kzECMsBzBcwhZ+EoU2hZqYGwCABh1Ugq0evcyzxznmdKcIxSbDNhH1HDMF7Fx5QZr/L3evID8eY5NubAZuKj1Lr+jGvZVmdsM1lgf4RpM2Hj2OZNxJKjWKL2Uhh2U2wz5cFmRJF6UK5h059Y7sNvJBPwHGnJJnifX6KAUMmEV5YppKqMbCrF1oyJbryfREqqTETDyxbQF3tmul4YkClCIROKBxUrVpQ1b/pfjzHSB/pjfV4UEGrNhJeWzTt17lOM9EHBw0SoWbNmZIaoQiGTtvP0pJjmi6+H/2HaT7kGdMWW0PXr13e+ZClThJp7KIQtl3WJcjZtplyG6gkiMQwUFYReFbA8Ch9JhQoVnG+kUFJBE8fAdPv27U3Dhg0jUwhDJxOOwgEDBqTcfjlGakAeNp7o16+f6C8mkw8s4GT3DrZhRjmQCgXF5PoX6IKOCsfatWvLxLd69erJtaj0giORWyiDVS0Qig0VAGSKSomLAtARwsDy0KFDTe/evfOuRMjWtBEMFTqlA9mzZ4/34IMPyqcybA0V2rSOKArDPrbn602aNMnbu3ev6E2FoakoIHQyAZSBoBjmCM2bN8/r3r27zBOypU6UqceSLMlp1P+VK1cWfcydOzcxlyqKZApt1kB+sMqRanvr1q3GKs8sX77crF+/XqaJsBuaP7oRi3qxQboVDDUxvZneLr02VvtgKymiaE9GjkxER6MEsdgVlu0NN23aJPOH2LYvm1sdZxOQiQ4Iw0x4tumYsGgSEjGBDwKpbmIypQEGS1Eq0dKSym9qJSahMSmN3/5SXFJAmiANHm0IRe2kUH1ouqOY/kjWTChKj6UZfl0ooqyTyJEpRu4i9grGcIaYTDGcISZTDGeIyRTDGWIyxXCGmEwxHMGY/wf9sbtj1oHQKAAAAABJRU5ErkJggg==;" vertex="1" parent="1">
          <mxGeometry x="390" y="435" width="45.94" height="45" as="geometry" />
        </mxCell>
        <mxCell id="o-5jzq-C7rD5Epzr2jJ_-6" value="" style="endArrow=classic;startArrow=classic;html=1;rounded=0;exitX=1;exitY=0.5;exitDx=0;exitDy=0;entryX=0;entryY=0.5;entryDx=0;entryDy=0;" edge="1" parent="1" source="46iBx0alZiGWIKfsoi77-3" target="46iBx0alZiGWIKfsoi77-6">
          <mxGeometry width="50" height="50" relative="1" as="geometry">
            <mxPoint x="700" y="410" as="sourcePoint" />
            <mxPoint x="750" y="360" as="targetPoint" />
          </mxGeometry>
        </mxCell>
        <mxCell id="o-5jzq-C7rD5Epzr2jJ_-7" value="" style="endArrow=classic;startArrow=classic;html=1;rounded=0;exitX=0.5;exitY=0;exitDx=0;exitDy=0;entryX=0;entryY=0.5;entryDx=0;entryDy=0;" edge="1" parent="1" source="46iBx0alZiGWIKfsoi77-6" target="46iBx0alZiGWIKfsoi77-7">
          <mxGeometry width="50" height="50" relative="1" as="geometry">
            <mxPoint x="435.94" y="360" as="sourcePoint" />
            <mxPoint x="525.94" y="360" as="targetPoint" />
            <Array as="points">
              <mxPoint x="455" y="370" />
            </Array>
          </mxGeometry>
        </mxCell>
        <mxCell id="o-5jzq-C7rD5Epzr2jJ_-8" value="" style="endArrow=classic;startArrow=classic;html=1;rounded=0;exitX=0.5;exitY=1;exitDx=0;exitDy=0;entryX=0;entryY=0.5;entryDx=0;entryDy=0;" edge="1" parent="1" source="46iBx0alZiGWIKfsoi77-6" target="46iBx0alZiGWIKfsoi77-8">
          <mxGeometry width="50" height="50" relative="1" as="geometry">
            <mxPoint x="425" y="550" as="sourcePoint" />
            <mxPoint x="515" y="550" as="targetPoint" />
            <Array as="points">
              <mxPoint x="455" y="550" />
            </Array>
          </mxGeometry>
        </mxCell>
      </root>
    </mxGraphModel>
  </diagram>
</mxfile>
